<?xml version="1.0" encoding="UTF-8" standalone="no"?>
<!DOCTYPE svg PUBLIC "-//W3C//DTD SVG 1.1//EN" "http://www.w3.org/Graphics/SVG/1.1/DTD/svg11.dtd">
<svg version="1.1" xmlns="http://www.w3.org/2000/svg" xmlns:xlink="http://www.w3.org/1999/xlink" preserveAspectRatio="xMidYMid meet" viewBox="0 0 123 123" width="123" height="123"><defs><path d="M120 62.11C120 94.35 93.82 120.53 61.58 120.53C29.34 120.53 3.16 94.35 3.16 62.11C3.16 29.86 29.34 3.68 61.58 3.68C93.82 3.68 120 29.86 120 62.11Z" id="f5sC3jyxl"></path><path d="M83.23 88.17C82.75 88.75 82.2 89.32 81.61 89.86C81.21 90.22 80.66 90.66 80.06 91.09C79.39 91.56 79.31 92.41 79.88 92.97C80.19 93.28 80.64 93.43 81.08 93.43C81.45 93.43 81.81 93.33 82.11 93.12C82.81 92.62 83.44 92.12 83.92 91.68C84.63 91.05 85.27 90.38 85.84 89.68C86.34 89.08 86.16 88.25 85.44 87.83C84.72 87.41 83.73 87.56 83.23 88.17Z" id="ggZL5cICR"></path><path d="M76.43 93.17C76.42 93.17 76.38 93.18 76.38 93.18C75.58 93.48 75.21 94.27 75.57 94.94C75.83 95.44 76.41 95.74 77.02 95.74C77.23 95.74 77.45 95.7 77.66 95.62C77.7 95.61 77.73 95.6 77.77 95.58C78.56 95.27 78.91 94.47 78.53 93.81C78.16 93.14 77.22 92.85 76.43 93.17Z" id="aGUJpvx3d"></path><path d="M97.73 39.96L97.92 39.97L98.11 39.99L98.29 40.02L98.48 40.06L98.66 40.1L98.84 40.15L99.01 40.2L99.18 40.26L99.35 40.32L99.52 40.39L99.68 40.46L99.83 40.54L99.99 40.62L100.14 40.71L100.28 40.8L100.42 40.9L100.56 41L100.69 41.11L100.81 41.22L100.93 41.33L101.05 41.45L101.16 41.57L101.27 41.7L101.37 41.83L101.46 41.96L101.55 42.1L101.63 42.23L101.7 42.38L101.77 42.52L101.83 42.67L101.89 42.82L101.94 42.97L101.98 43.12L102.01 43.28L102.04 43.44L102.06 43.6L102.07 43.76L102.08 43.92L102.08 81.29L102.07 81.45L102.06 81.61L102.04 81.77L102.01 81.93L101.98 82.09L101.94 82.24L101.89 82.39L101.83 82.54L101.77 82.69L101.7 82.83L101.63 82.98L101.55 83.11L101.46 83.25L101.37 83.38L101.27 83.51L101.16 83.64L101.05 83.76L100.93 83.88L100.81 83.99L100.69 84.1L100.56 84.21L100.42 84.31L100.28 84.41L100.14 84.5L99.99 84.59L99.83 84.67L99.68 84.75L99.52 84.82L99.35 84.89L99.18 84.95L99.01 85.01L98.84 85.06L98.66 85.11L98.48 85.15L98.29 85.19L98.11 85.22L97.92 85.24L97.73 85.25L97.54 85.26L97.34 85.27L95 85.27L94.89 85.64L94.77 86.01L94.65 86.38L94.52 86.73L94.39 87.09L94.25 87.43L94.1 87.78L93.95 88.11L93.8 88.45L93.64 88.77L93.47 89.09L93.3 89.41L93.13 89.72L92.95 90.02L92.77 90.32L92.58 90.62L92.39 90.91L92.2 91.19L92.01 91.47L91.81 91.74L91.61 92.01L91.41 92.27L91.2 92.53L91 92.78L90.79 93.03L90.58 93.28L90.37 93.51L90.15 93.75L89.94 93.97L89.72 94.2L89.51 94.41L89.29 94.63L89.08 94.84L88.86 95.04L88.65 95.24L88.43 95.43L88.22 95.62L88.01 95.8L87.8 95.98L87.59 96.15L87.28 96.4L86.97 96.64L86.66 96.88L86.35 97.11L86.03 97.33L85.72 97.55L85.41 97.76L85.09 97.97L84.78 98.17L84.47 98.36L84.15 98.55L83.84 98.73L83.54 98.9L83.23 99.07L82.92 99.24L82.62 99.39L82.32 99.54L82.03 99.69L81.74 99.83L81.45 99.96L81.17 100.09L80.89 100.21L80.61 100.32L80.34 100.43L80.08 100.53L79.82 100.62L79.57 100.71L79.33 100.79L79.09 100.87L78.86 100.93L78.63 101L78.42 101.05L78.21 101.1L78.01 101.15L77.82 101.18L77.64 101.21L77.47 101.23L77.31 101.25L77.16 101.26L77.02 101.26L76.88 101.26L76.72 101.25L76.56 101.23L76.39 101.21L76.21 101.18L76.02 101.15L75.82 101.1L75.62 101.05L75.4 101L75.18 100.93L74.95 100.87L74.71 100.79L74.46 100.71L74.21 100.62L73.95 100.53L73.69 100.43L73.42 100.32L73.15 100.21L72.87 100.09L72.58 99.96L72.3 99.83L72.01 99.69L71.71 99.54L71.41 99.39L71.11 99.24L70.8 99.07L70.5 98.9L70.19 98.73L69.88 98.55L69.57 98.36L69.25 98.17L68.94 97.97L68.63 97.76L68.31 97.55L68 97.33L67.69 97.11L67.37 96.88L67.06 96.64L66.76 96.4L66.45 96.15L66.24 95.98L66.03 95.8L65.81 95.62L65.6 95.43L65.38 95.24L65.17 95.04L64.95 94.84L64.74 94.63L64.52 94.41L64.31 94.2L64.09 93.97L63.88 93.75L63.67 93.51L63.46 93.28L63.25 93.03L63.04 92.78L62.83 92.53L62.63 92.27L62.42 92.01L62.22 91.74L62.03 91.47L61.83 91.19L61.64 90.91L61.45 90.62L61.27 90.32L61.08 90.02L60.91 89.72L60.73 89.41L60.56 89.09L60.4 88.77L60.24 88.45L60.08 88.11L59.93 87.78L59.79 87.43L59.65 87.09L59.51 86.73L59.38 86.38L59.26 86.01L59.15 85.64L59.04 85.27L25.66 85.27L25.46 85.26L25.27 85.25L25.08 85.24L24.89 85.22L24.71 85.19L24.52 85.15L24.34 85.11L24.16 85.06L23.99 85.01L23.82 84.95L23.65 84.89L23.48 84.82L23.32 84.75L23.17 84.67L23.01 84.59L22.86 84.5L22.72 84.41L22.58 84.31L22.44 84.21L22.31 84.1L22.19 83.99L22.07 83.88L21.95 83.76L21.84 83.64L21.73 83.51L21.63 83.38L21.54 83.25L21.45 83.11L21.37 82.98L21.3 82.83L21.23 82.69L21.17 82.54L21.11 82.39L21.06 82.24L21.02 82.09L20.99 81.93L20.96 81.77L20.94 81.61L20.93 81.45L20.92 81.29L20.92 43.92L20.93 43.76L20.94 43.6L20.96 43.44L20.99 43.28L21.02 43.12L21.06 42.97L21.11 42.82L21.17 42.67L21.23 42.52L21.3 42.38L21.37 42.23L21.45 42.1L21.54 41.96L21.63 41.83L21.73 41.7L21.84 41.57L21.95 41.45L22.07 41.33L22.19 41.22L22.31 41.11L22.44 41L22.58 40.9L22.72 40.8L22.86 40.71L23.01 40.62L23.17 40.54L23.32 40.46L23.48 40.39L23.65 40.32L23.82 40.26L23.99 40.2L24.16 40.15L24.34 40.1L24.52 40.06L24.71 40.02L24.89 39.99L25.08 39.97L25.27 39.96L25.46 39.95L25.66 39.94L97.34 39.94L97.54 39.95L97.73 39.96ZM75.44 68.44L74.65 68.8L73.85 69.14L73.05 69.48L72.25 69.8L71.45 70.12L70.64 70.43L69.83 70.72L69.01 71.01L68.19 71.3L67.37 71.57L66.54 71.83L65.71 72.09L64.87 72.33L64.03 72.57L63.18 72.8L62.33 73.03L61.47 73.24L61.47 79.8L61.5 80.89L61.59 81.94L61.74 82.96L61.94 83.93L62.19 84.86L62.48 85.76L62.81 86.62L63.18 87.45L63.59 88.23L64.02 88.98L64.48 89.7L64.95 90.38L65.45 91.02L65.96 91.63L66.47 92.2L67 92.74L67.52 93.25L68.04 93.72L68.56 94.16L69.16 94.64L69.77 95.1L70.37 95.52L70.96 95.91L71.54 96.27L72.11 96.61L72.67 96.91L73.21 97.19L73.72 97.44L74.21 97.66L74.67 97.86L75.1 98.03L75.5 98.18L75.86 98.31L76.18 98.41L76.46 98.49L76.7 98.55L76.88 98.58L77.02 98.6L77.15 98.58L77.34 98.55L77.57 98.49L77.85 98.41L78.17 98.31L78.54 98.18L78.93 98.03L79.36 97.86L79.83 97.66L80.31 97.44L80.83 97.19L81.36 96.91L81.92 96.61L82.49 96.27L83.07 95.91L83.67 95.52L84.27 95.1L84.87 94.64L85.48 94.16L85.82 93.85L86.16 93.5L86.51 93.09L86.87 92.63L87.22 92.13L87.58 91.57L87.94 90.97L88.31 90.31L88.68 89.61L89.05 88.85L89.43 88.04L89.81 87.19L90.19 86.28L90.58 85.33L90.97 84.32L91.36 83.27L91.76 82.16L92.16 81.01L92.57 79.8L92.57 73.24L91.72 73.03L90.88 72.81L90.04 72.58L89.2 72.34L88.36 72.09L87.52 71.83L86.69 71.56L85.86 71.29L85.03 71L84.21 70.71L83.39 70.41L82.57 70.1L81.76 69.78L80.95 69.45L80.15 69.12L79.36 68.78L78.57 68.43L77.79 68.07L77.02 67.71L76.23 68.08L75.44 68.44ZM24.09 81.29L24.1 81.34L24.1 81.39L24.11 81.45L24.11 81.5L24.13 81.55L24.14 81.6L24.16 81.65L24.17 81.7L24.19 81.75L24.22 81.8L24.24 81.84L24.27 81.89L24.3 81.93L24.33 81.98L24.36 82.02L24.4 82.06L24.43 82.1L24.47 82.14L24.51 82.18L24.55 82.22L24.6 82.25L24.64 82.28L24.69 82.32L24.74 82.35L24.78 82.38L24.84 82.4L24.89 82.43L24.94 82.45L24.99 82.48L25.05 82.5L25.11 82.52L25.16 82.53L25.22 82.55L25.28 82.56L25.34 82.57L25.41 82.58L25.47 82.59L25.53 82.6L25.59 82.6L25.66 82.6L58.49 82.6L58.48 82.53L58.47 82.47L58.46 82.4L58.45 82.33L58.44 82.26L58.43 82.2L58.43 82.13L58.42 82.06L58.41 81.99L58.41 81.92L58.4 81.86L58.39 81.79L58.39 81.72L58.38 81.65L58.37 81.58L58.37 81.51L58.36 81.44L58.36 81.37L58.35 81.3L58.35 81.23L58.34 81.16L58.34 81.09L58.33 81.02L58.33 80.95L58.33 80.88L58.32 80.81L58.32 80.74L58.32 80.67L58.31 80.6L58.31 80.53L58.31 80.45L58.31 80.38L58.3 80.31L58.3 80.24L58.3 80.17L58.3 80.09L58.3 80.02L58.3 79.95L58.3 79.88L58.3 79.8L58.3 72.23L58.3 72.18L58.3 72.14L58.31 72.09L58.31 72.05L58.32 72.01L58.33 71.96L58.34 71.92L58.35 71.88L58.37 71.84L58.38 71.8L58.4 71.76L58.42 71.72L58.44 71.68L58.46 71.64L58.49 71.6L58.51 71.56L58.54 71.52L58.56 71.49L58.59 71.45L58.62 71.42L58.66 71.39L58.69 71.35L58.72 71.32L58.76 71.29L58.79 71.26L58.83 71.23L58.87 71.2L58.91 71.18L58.95 71.15L58.99 71.12L59.04 71.1L59.08 71.08L59.13 71.06L59.17 71.04L59.22 71.02L59.27 71L59.32 70.98L59.37 70.97L59.42 70.95L59.47 70.94L59.91 70.84L60.35 70.73L60.79 70.63L61.23 70.52L61.67 70.41L62.1 70.29L62.54 70.18L62.97 70.06L63.4 69.94L63.83 69.82L64.26 69.69L64.69 69.56L65.11 69.43L65.54 69.3L65.96 69.17L66.38 69.03L66.8 68.89L67.22 68.75L67.64 68.61L68.06 68.46L68.47 68.31L68.89 68.16L69.3 68.01L69.71 67.85L70.13 67.69L70.54 67.53L70.95 67.37L71.36 67.2L71.77 67.04L72.18 66.86L72.58 66.69L72.99 66.52L73.39 66.34L73.8 66.16L74.2 65.97L74.61 65.79L75.01 65.6L75.41 65.41L75.81 65.21L76.22 65.02L76.25 65L76.29 64.98L76.33 64.97L76.37 64.95L76.41 64.94L76.45 64.93L76.49 64.91L76.53 64.9L76.57 64.89L76.61 64.88L76.65 64.87L76.69 64.87L76.73 64.86L76.77 64.85L76.81 64.85L76.85 64.84L76.89 64.84L76.93 64.84L76.98 64.84L77.02 64.84L77.06 64.84L77.1 64.84L77.14 64.84L77.18 64.84L77.22 64.85L77.27 64.85L77.31 64.86L77.35 64.86L77.39 64.87L77.43 64.88L77.47 64.89L77.51 64.9L77.55 64.91L77.59 64.93L77.63 64.94L77.67 64.95L77.7 64.97L77.74 64.98L77.78 65L77.82 65.02L78.21 65.21L78.6 65.4L79 65.59L79.4 65.77L79.79 65.95L80.2 66.14L80.6 66.31L81 66.49L81.41 66.67L81.82 66.84L82.23 67.01L82.64 67.18L83.05 67.34L83.47 67.51L83.89 67.67L84.3 67.83L84.72 67.99L85.14 68.14L85.56 68.3L85.98 68.45L86.41 68.6L86.83 68.74L87.26 68.89L87.68 69.03L88.11 69.17L88.54 69.3L88.96 69.44L89.39 69.57L89.82 69.7L90.25 69.82L90.68 69.95L91.11 70.07L91.54 70.19L91.98 70.3L92.41 70.42L92.84 70.53L93.27 70.63L93.7 70.74L94.13 70.84L94.57 70.94L94.62 70.95L94.67 70.97L94.72 70.98L94.77 71L94.81 71.02L94.86 71.04L94.91 71.06L94.95 71.08L95 71.1L95.04 71.12L95.08 71.15L95.12 71.18L95.16 71.2L95.2 71.23L95.24 71.26L95.28 71.29L95.31 71.32L95.35 71.35L95.38 71.39L95.41 71.42L95.44 71.45L95.47 71.49L95.5 71.52L95.52 71.56L95.55 71.6L95.57 71.64L95.59 71.68L95.61 71.71L95.63 71.76L95.65 71.8L95.67 71.84L95.68 71.88L95.69 71.92L95.7 71.96L95.71 72.01L95.72 72.05L95.73 72.09L95.73 72.14L95.74 72.18L95.74 72.23L95.74 79.8L95.74 79.88L95.74 79.95L95.73 80.02L95.73 80.09L95.73 80.17L95.73 80.24L95.73 80.31L95.73 80.38L95.73 80.45L95.72 80.53L95.72 80.6L95.72 80.67L95.72 80.74L95.71 80.81L95.71 80.88L95.7 80.95L95.7 81.02L95.7 81.09L95.69 81.16L95.69 81.23L95.68 81.3L95.68 81.37L95.67 81.44L95.67 81.51L95.66 81.58L95.65 81.65L95.65 81.72L95.64 81.79L95.64 81.86L95.63 81.92L95.62 81.99L95.61 82.06L95.61 82.13L95.6 82.2L95.59 82.26L95.58 82.33L95.57 82.4L95.57 82.47L95.56 82.53L95.55 82.6L97.34 82.6L97.38 82.6L97.43 82.6L97.47 82.59L97.51 82.59L97.55 82.58L97.6 82.57L97.64 82.56L97.68 82.55L97.72 82.53L97.76 82.52L97.8 82.5L97.84 82.48L97.88 82.46L97.93 82.44L97.97 82.42L98.01 82.39L98.05 82.36L98.08 82.33L98.12 82.3L98.16 82.27L98.2 82.24L98.24 82.2L98.28 82.17L98.32 82.13L98.36 82.09L98.39 82.05L98.43 82L98.47 81.96L98.51 81.91L98.54 81.86L98.58 81.81L98.62 81.76L98.66 81.71L98.69 81.65L98.73 81.59L98.76 81.54L98.8 81.48L98.84 81.41L98.87 81.35L98.91 81.29L98.91 58.61L24.09 58.61L24.09 81.29ZM24.09 55.94L98.91 55.94L98.91 50.61L24.09 50.61L24.09 55.94ZM25.58 42.61L25.49 42.62L25.41 42.62L25.33 42.64L25.26 42.65L25.18 42.67L25.11 42.69L25.03 42.72L24.96 42.75L24.89 42.78L24.83 42.81L24.76 42.85L24.7 42.89L24.64 42.93L24.58 42.97L24.53 43.02L24.47 43.07L24.42 43.12L24.38 43.17L24.33 43.22L24.29 43.28L24.26 43.34L24.22 43.4L24.2 43.46L24.17 43.52L24.15 43.59L24.13 43.65L24.11 43.72L24.1 43.79L24.1 43.85L24.09 43.92L24.09 47.94L98.91 47.94L98.91 43.92L98.9 43.85L98.9 43.79L98.89 43.72L98.87 43.65L98.85 43.59L98.83 43.52L98.8 43.46L98.78 43.4L98.74 43.34L98.71 43.28L98.67 43.22L98.62 43.17L98.58 43.12L98.53 43.07L98.47 43.02L98.42 42.97L98.36 42.93L98.3 42.89L98.24 42.85L98.17 42.81L98.11 42.78L98.04 42.75L97.97 42.72L97.89 42.69L97.82 42.67L97.74 42.65L97.67 42.64L97.59 42.62L97.51 42.62L97.42 42.61L97.34 42.61L25.66 42.61L25.58 42.61Z" id="b33EJ9jOje"></path><path d="M42.2 68.24L43.22 68.61L44.15 69.1L44.98 69.7L45.7 70.4L46.28 71.18L46.71 72.04L46.98 72.96L47.08 73.94L46.98 74.91L46.71 75.83L46.28 76.69L45.7 77.48L44.98 78.18L44.15 78.78L43.22 79.26L42.2 79.63L41.1 79.86L39.94 79.94L39.66 79.93L39.37 79.92L39.09 79.89L38.81 79.86L38.53 79.82L38.25 79.76L37.97 79.7L37.7 79.63L37.43 79.55L37.17 79.46L36.91 79.55L36.65 79.63L36.38 79.7L36.11 79.76L35.83 79.81L35.55 79.86L35.27 79.89L34.98 79.92L34.69 79.93L34.4 79.94L33.24 79.86L32.14 79.63L31.12 79.26L30.19 78.78L29.36 78.18L28.64 77.48L28.06 76.69L27.63 75.83L27.36 74.91L27.26 73.94L27.36 72.96L27.63 72.04L28.06 71.18L28.64 70.4L29.36 69.7L30.19 69.1L31.12 68.61L32.14 68.24L33.24 68.02L34.4 67.94L34.69 67.94L34.98 67.96L35.27 67.98L35.55 68.02L35.83 68.06L36.11 68.11L36.38 68.17L36.65 68.24L36.91 68.32L37.17 68.41L37.44 68.32L37.7 68.24L37.97 68.17L38.25 68.11L38.53 68.06L38.81 68.01L39.09 67.98L39.37 67.96L39.66 67.94L39.94 67.94L41.1 68.02L42.2 68.24ZM31.6 71.58L30.75 72.64L30.43 73.94L30.75 75.23L31.6 76.29L32.86 77.01L34.4 77.27L35.94 77.01L37.2 76.29L38.05 75.23L38.36 73.94L38.05 72.64L37.2 71.58L35.94 70.87L34.4 70.6L32.86 70.87L31.6 71.58ZM41.22 72.18L41.45 73.03L41.53 73.94L41.45 74.84L41.22 75.7L40.84 76.51L40.34 77.25L41.74 76.91L42.87 76.18L43.63 75.16L43.91 73.94L43.63 72.71L42.87 71.69L41.74 70.97L40.34 70.62L40.84 71.37L41.22 72.18Z" id="a26PrDva8U"></path><path d="M28.85 61.94C27.97 61.94 27.26 62.53 27.26 63.27C27.26 64.01 27.97 64.6 28.85 64.6C29.66 64.6 36.19 64.6 37 64.6C37.88 64.6 38.59 64.01 38.59 63.27C38.59 62.53 37.88 61.94 37 61.94C35.37 61.94 29.66 61.94 28.85 61.94Z" id="b1V2VM96n"></path><path d="M41.61 61.94C40.74 61.94 40.03 62.53 40.03 63.27C40.03 64.01 40.74 64.6 41.61 64.6C41.62 64.6 41.68 64.6 41.69 64.6C42.56 64.6 43.27 64.01 43.27 63.27C43.27 62.53 42.56 61.94 41.69 61.94C41.67 61.94 41.62 61.94 41.61 61.94Z" id="g2cGVmhbpF"></path><path d="M83.48 76.74C82.91 77.21 80.09 79.59 75 83.87C72.33 81.63 70.85 80.38 70.56 80.13C69.94 79.61 68.94 79.61 68.32 80.13C67.7 80.65 67.7 81.5 68.32 82.02C68.87 82.48 73.32 86.23 73.88 86.7C74.19 86.96 74.59 87.09 75 87.09C75.41 87.09 75.81 86.96 76.12 86.7C77.08 85.89 84.76 79.43 85.72 78.62C86.34 78.1 86.34 77.26 85.72 76.74C85.1 76.22 84.1 76.22 83.48 76.74Z" id="k1pTbua4cg"></path></defs><g><g><g><use xlink:href="#f5sC3jyxl" opacity="1" fill="#2b7ce9" fill-opacity="0.72"></use><g><use xlink:href="#f5sC3jyxl" opacity="1" fill-opacity="0" stroke="#2b7ce9" stroke-width="2" stroke-opacity="1"></use></g></g><g><use xlink:href="#ggZL5cICR" opacity="1" fill="#000000" fill-opacity="1"></use><g><use xlink:href="#ggZL5cICR" opacity="1" fill-opacity="0" stroke="#000000" stroke-width="1" stroke-opacity="0"></use></g></g><g><use xlink:href="#aGUJpvx3d" opacity="1" fill="#000000" fill-opacity="1"></use><g><use xlink:href="#aGUJpvx3d" opacity="1" fill-opacity="0" stroke="#000000" stroke-width="1" stroke-opacity="0"></use></g></g><g><use xlink:href="#b33EJ9jOje" opacity="1" fill="#000000" fill-opacity="1"></use><g><use xlink:href="#b33EJ9jOje" opacity="1" fill-opacity="0" stroke="#000000" stroke-width="1" stroke-opacity="0"></use></g></g><g><use xlink:href="#a26PrDva8U" opacity="1" fill="#000000" fill-opacity="1"></use><g><use xlink:href="#a26PrDva8U" opacity="1" fill-opacity="0" stroke="#000000" stroke-width="1" stroke-opacity="0"></use></g></g><g><use xlink:href="#b1V2VM96n" opacity="1" fill="#000000" fill-opacity="1"></use><g><use xlink:href="#b1V2VM96n" opacity="1" fill-opacity="0" stroke="#000000" stroke-width="1" stroke-opacity="0"></use></g></g><g><use xlink:href="#g2cGVmhbpF" opacity="1" fill="#000000" fill-opacity="1"></use><g><use xlink:href="#g2cGVmhbpF" opacity="1" fill-opacity="0" stroke="#000000" stroke-width="1" stroke-opacity="0"></use></g></g><g><use xlink:href="#k1pTbua4cg" opacity="1" fill="#000000" fill-opacity="1"></use><g><use xlink:href="#k1pTbua4cg" opacity="1" fill-opacity="0" stroke="#000000" stroke-width="1" stroke-opacity="0"></use></g></g></g></g></svg>